<?xml version="1.0" encoding="utf-8"?>
<svg xmlns="http://www.w3.org/2000/svg" xmlns:xlink="http://www.w3.org/1999/xlink" style="margin: auto; background: rgb(255, 255, 255) none repeat scroll 0% 0%; display: block; shape-rendering: auto;" width="271px" height="271px" viewBox="0 0 100 100" preserveAspectRatio="xMidYMid">
<g transform="rotate(0 50 50)">
  <rect x="47" y="29.5" rx="3" ry="3.24" width="6" height="9" fill="#515050">
    <animate attributeName="opacity" values="1;0" keyTimes="0;1" dur="1.282051282051282s" begin="-1.1396011396011396s" repeatCount="indefinite"></animate>
  </rect>
</g><g transform="rotate(40 50 50)">
  <rect x="47" y="29.5" rx="3" ry="3.24" width="6" height="9" fill="#515050">
    <animate attributeName="opacity" values="1;0" keyTimes="0;1" dur="1.282051282051282s" begin="-0.9971509971509971s" repeatCount="indefinite"></animate>
  </rect>
</g><g transform="rotate(80 50 50)">
  <rect x="47" y="29.5" rx="3" ry="3.24" width="6" height="9" fill="#515050">
    <animate attributeName="opacity" values="1;0" keyTimes="0;1" dur="1.282051282051282s" begin="-0.8547008547008547s" repeatCount="indefinite"></animate>
  </rect>
</g><g transform="rotate(120 50 50)">
  <rect x="47" y="29.5" rx="3" ry="3.24" width="6" height="9" fill="#515050">
    <animate attributeName="opacity" values="1;0" keyTimes="0;1" dur="1.282051282051282s" begin="-0.7122507122507122s" repeatCount="indefinite"></animate>
  </rect>
</g><g transform="rotate(160 50 50)">
  <rect x="47" y="29.5" rx="3" ry="3.24" width="6" height="9" fill="#515050">
    <animate attributeName="opacity" values="1;0" keyTimes="0;1" dur="1.282051282051282s" begin="-0.5698005698005698s" repeatCount="indefinite"></animate>
  </rect>
</g><g transform="rotate(200 50 50)">
  <rect x="47" y="29.5" rx="3" ry="3.24" width="6" height="9" fill="#515050">
    <animate attributeName="opacity" values="1;0" keyTimes="0;1" dur="1.282051282051282s" begin="-0.42735042735042733s" repeatCount="indefinite"></animate>
  </rect>
</g><g transform="rotate(240 50 50)">
  <rect x="47" y="29.5" rx="3" ry="3.24" width="6" height="9" fill="#515050">
    <animate attributeName="opacity" values="1;0" keyTimes="0;1" dur="1.282051282051282s" begin="-0.2849002849002849s" repeatCount="indefinite"></animate>
  </rect>
</g><g transform="rotate(280 50 50)">
  <rect x="47" y="29.5" rx="3" ry="3.24" width="6" height="9" fill="#515050">
    <animate attributeName="opacity" values="1;0" keyTimes="0;1" dur="1.282051282051282s" begin="-0.14245014245014245s" repeatCount="indefinite"></animate>
  </rect>
</g><g transform="rotate(320 50 50)">
  <rect x="47" y="29.5" rx="3" ry="3.24" width="6" height="9" fill="#515050">
    <animate attributeName="opacity" values="1;0" keyTimes="0;1" dur="1.282051282051282s" begin="0s" repeatCount="indefinite"></animate>
  </rect>
</g>
<!-- [ldio] generated by https://loading.io/ --></svg>